<?xml version="1.0" encoding="utf-8"?>
<!-- Generator: Adobe Illustrator 23.0.6, SVG Export Plug-In . SVG Version: 6.00 Build 0)  -->
<svg version="1.1" id="Layer_1" xmlns="http://www.w3.org/2000/svg" xmlns:xlink="http://www.w3.org/1999/xlink" x="0px" y="0px"
	 viewBox="0 0 100 100" style="enable-background:new 0 0 100 100;" xml:space="preserve">
<style type="text/css">
	.st0{fill:none;stroke:#29722A;stroke-width:2;stroke-miterlimit:10;}
	.st1{fill:none;stroke:#29722A;stroke-width:2;stroke-linecap:round;stroke-miterlimit:10;}
</style>
<path class="st0" d="M54.9,41.1h-9.4c-0.7,0-1.3-0.6-1.3-1.3V26.4c0-0.7,0.6-1.3,1.3-1.3h9.4c0.7,0,1.3,0.6,1.3,1.3v13.4
	C56.2,40.5,55.6,41.1,54.9,41.1z"/>
<line class="st1" x1="73.2" y1="65.1" x2="73.2" y2="65.1"/>
<path class="st1" d="M43.4,63.3l-3.8-1.9c-0.3-0.1-0.4-0.4-0.4-0.7v-1.2c1.9-0.8,3-2.5,3.6-4.5c0.8-0.3,1.4-1,1.4-1.9v-1
	c0-0.8-0.4-1.4-1.1-1.8c-0.4-3.8-2.9-5.3-6.9-5.3c-0.2,0-0.4,0-0.6,0c-1.4,0.1-2.7-0.1-3.9-0.9c-0.5-0.3-0.9-0.7-1.1-1
	c-0.1-0.2-0.4-0.1-0.4,0.1c0,0.4,0.1,0.8,0.2,1.2c0.3,1.7,0.1,1.4-0.5,3c-0.4,0.9-0.6,1.8-0.7,2.8c-0.6,0.3-1.1,1-1.1,1.8v1
	c0,0.9,0.6,1.6,1.4,1.9c0.5,2,1.7,3.6,3.6,4.5v1.1c0,0.3-0.2,0.6-0.4,0.7l-3.9,1.9c-1.1,0.6-1.7,1.7-1.7,2.9v0.9c0,0,0,0.3,0,0.4
	c0,1.1,4,1.7,9,1.7s9-0.6,9-1.7c0-0.1,0-0.4,0-0.4v-0.8C45.2,65,44.5,63.8,43.4,63.3z"/>
<line class="st1" x1="51.2" y1="48.1" x2="61.2" y2="48.1"/>
<line class="st1" x1="51.2" y1="65.1" x2="52.2" y2="65.1"/>
<line class="st1" x1="56.2" y1="65.1" x2="58.2" y2="65.1"/>
<line class="st1" x1="62.2" y1="65.1" x2="63.2" y2="65.1"/>
<line class="st1" x1="67.2" y1="65.1" x2="69.2" y2="65.1"/>
<line class="st1" x1="51.2" y1="54.1" x2="73.2" y2="54.1"/>
<line class="st1" x1="51.2" y1="60.1" x2="73.2" y2="60.1"/>
<path class="st0" d="M56.2,35.1v4.7c0,0.7-0.6,1.3-1.3,1.3h-9.4c-0.7,0-1.3-0.6-1.3-1.3v-4.7H24.9c-2,0-3.7,1.6-3.7,3.7v32.6
	c0,2,1.6,3.7,3.7,3.7h50.6c2,0,3.7-1.6,3.7-3.7V38.8c0-2-1.6-3.7-3.7-3.7H56.2z"/>
<circle class="st0" cx="50.2" cy="31.1" r="3"/>
</svg>
