<?xml version="1.0" encoding="utf-8"?>
<!-- Generator: Adobe Illustrator 23.0.6, SVG Export Plug-In . SVG Version: 6.00 Build 0)  -->
<svg version="1.1" id="Layer_1" xmlns="http://www.w3.org/2000/svg" xmlns:xlink="http://www.w3.org/1999/xlink" x="0px" y="0px"
	 viewBox="0 0 100 100" style="enable-background:new 0 0 100 100;" xml:space="preserve">
<style type="text/css">
	.st0{fill:none;stroke:#29722A;stroke-width:2;stroke-linecap:round;stroke-miterlimit:10;}
	.st1{fill:#29722A;}
</style>
<path class="st0" d="M58.2,22.3v55.6c0,0.1,0.1,0.1,0.2,0.1l15.8-8.9v-38l-15.8-8.9C58.3,22.2,58.2,22.2,58.2,22.3z"/>
<path class="st0" d="M50.2,31.2H26.5c-0.7,0-1.3,0.6-1.3,1.3v35.3c0,0.7,0.6,1.3,1.3,1.3h23.7V31.2z"/>
<path class="st0" d="M50.2,27.2H22.1c-0.5,0-0.9,0.4-0.9,0.9v44.1c0,0.5,0.4,0.9,0.9,0.9h28.1V27.2z"/>
<path class="st0" d="M67.1,27.2l7.1,4v38l-7.1,4h11.2c0.5,0,0.9-0.4,0.9-0.9V28.2c0-0.5-0.4-0.9-0.9-0.9H67.1V27.2z"/>
<line class="st0" x1="73.2" y1="36.2" x2="76.2" y2="36.2"/>
<line class="st0" x1="73.2" y1="39.2" x2="76.2" y2="39.2"/>
<line class="st0" x1="73.2" y1="61.2" x2="76.2" y2="61.2"/>
<line class="st0" x1="73.2" y1="64.2" x2="76.2" y2="64.2"/>
<rect x="23.2" y="73.2" class="st0" width="8" height="4"/>
<rect x="69.2" y="73.2" class="st0" width="8" height="4"/>
<circle class="st1" cx="54.2" cy="27.1" r="1"/>
<circle class="st1" cx="54.2" cy="33.1" r="1"/>
<circle class="st1" cx="54.2" cy="67.1" r="1"/>
<circle class="st1" cx="54.2" cy="61.1" r="1"/>
<circle class="st1" cx="54.2" cy="39.1" r="1"/>
<circle class="st1" cx="54.2" cy="73.1" r="1"/>
<path class="st0" d="M61.2,56.1c1.7,0,3-1.4,3-3v-6c0-1.7-1.4-3-3-3"/>
<path class="st0" d="M61.2,40.1c3.9,0,7,3.1,7,7v6c0,3.9-3.1,7-7,7"/>
<rect x="50.2" y="24.2" class="st0" width="8" height="52"/>
<circle class="st1" cx="33.2" cy="32.2" r="1"/>
<circle class="st1" cx="39.2" cy="32.2" r="1"/>
<circle class="st1" cx="27.2" cy="32.2" r="1"/>
<circle class="st1" cx="45.2" cy="32.2" r="1"/>
<circle class="st1" cx="33.2" cy="38.2" r="1"/>
<circle class="st1" cx="36.2" cy="35.2" r="1"/>
<circle class="st1" cx="36.2" cy="41.2" r="1"/>
<circle class="st1" cx="39.2" cy="38.2" r="1"/>
<circle class="st1" cx="27.2" cy="38.2" r="1"/>
<circle class="st1" cx="30.2" cy="35.2" r="1"/>
<circle class="st1" cx="30.2" cy="41.2" r="1"/>
<circle class="st1" cx="42.2" cy="35.2" r="1"/>
<circle class="st1" cx="42.2" cy="41.2" r="1"/>
<circle class="st1" cx="45.2" cy="38.2" r="1"/>
<circle class="st1" cx="33.2" cy="44.2" r="1"/>
<circle class="st1" cx="39.2" cy="44.2" r="1"/>
<circle class="st1" cx="27.2" cy="44.2" r="1"/>
<circle class="st1" cx="45.2" cy="44.2" r="1"/>
<circle class="st1" cx="48.2" cy="35.2" r="1"/>
<circle class="st1" cx="48.2" cy="41.2" r="1"/>
<circle class="st1" cx="33.2" cy="50.2" r="1"/>
<circle class="st1" cx="36.2" cy="47.2" r="1"/>
<circle class="st1" cx="36.2" cy="53.2" r="1"/>
<circle class="st1" cx="39.2" cy="50.2" r="1"/>
<circle class="st1" cx="27.2" cy="50.2" r="1"/>
<circle class="st1" cx="30.2" cy="47.2" r="1"/>
<circle class="st1" cx="30.2" cy="53.2" r="1"/>
<circle class="st1" cx="42.2" cy="47.2" r="1"/>
<circle class="st1" cx="42.2" cy="53.2" r="1"/>
<circle class="st1" cx="45.2" cy="50.2" r="1"/>
<circle class="st1" cx="33.2" cy="56.2" r="1"/>
<circle class="st1" cx="39.2" cy="56.2" r="1"/>
<circle class="st1" cx="27.2" cy="56.2" r="1"/>
<circle class="st1" cx="45.2" cy="56.2" r="1"/>
<circle class="st1" cx="48.2" cy="47.2" r="1"/>
<circle class="st1" cx="48.2" cy="53.2" r="1"/>
<circle class="st1" cx="33.2" cy="62.2" r="1"/>
<circle class="st1" cx="36.2" cy="59.2" r="1"/>
<circle class="st1" cx="36.2" cy="65.2" r="1"/>
<circle class="st1" cx="39.2" cy="62.2" r="1"/>
<circle class="st1" cx="27.2" cy="62.2" r="1"/>
<circle class="st1" cx="30.2" cy="59.2" r="1"/>
<circle class="st1" cx="30.2" cy="65.2" r="1"/>
<circle class="st1" cx="42.2" cy="59.2" r="1"/>
<circle class="st1" cx="42.2" cy="65.2" r="1"/>
<circle class="st1" cx="45.2" cy="62.2" r="1"/>
<circle class="st1" cx="33.2" cy="68.2" r="1"/>
<circle class="st1" cx="39.2" cy="68.2" r="1"/>
<circle class="st1" cx="27.2" cy="68.2" r="1"/>
<circle class="st1" cx="45.2" cy="68.2" r="1"/>
<circle class="st1" cx="48.2" cy="59.2" r="1"/>
<circle class="st1" cx="48.2" cy="65.2" r="1"/>
</svg>
