<?xml version="1.0" encoding="utf-8"?>
<!-- Generator: Adobe Illustrator 23.0.6, SVG Export Plug-In . SVG Version: 6.00 Build 0)  -->
<svg version="1.1" id="Layer_1" xmlns="http://www.w3.org/2000/svg" xmlns:xlink="http://www.w3.org/1999/xlink" x="0px" y="0px"
	 viewBox="0 0 100 100" style="enable-background:new 0 0 100 100;" xml:space="preserve">
<style type="text/css">
	.st0{fill:#29722A;}
</style>
<g>
	<path class="st0" d="M50.7,24.6c6.2,0,12.1,2.4,16.5,6.8c4.4,4.4,6.8,10.3,6.8,16.5s-2.4,12.1-6.8,16.5c-4.4,4.4-10.3,6.8-16.5,6.8
		s-12.1-2.4-16.5-6.8c-4.4-4.4-6.8-10.3-6.8-16.5s2.4-12.1,6.8-16.5S44.5,24.6,50.7,24.6 M50.7,18.7c-16.2,0-29.3,13.1-29.3,29.3
		s13.1,29.3,29.3,29.3S80,64.2,80,48S66.9,18.7,50.7,18.7z"/>
	<path class="st0" d="M53.7,62.6h-6V45h5.9L53.7,62.6L53.7,62.6z M53.7,39.3h-6v-5.9h5.9L53.7,39.3L53.7,39.3z"/>
</g>
</svg>
