<?xml version="1.0" encoding="utf-8"?>
<!-- Generator: Adobe Illustrator 23.0.6, SVG Export Plug-In . SVG Version: 6.00 Build 0)  -->
<svg version="1.1" id="overview" xmlns="http://www.w3.org/2000/svg" xmlns:xlink="http://www.w3.org/1999/xlink" x="0px" y="0px"
	 viewBox="0 0 122 122" style="enable-background:new 0 0 122 122;" xml:space="preserve">
<style type="text/css">
	.st0{fill:#29722A;}
</style>
<g>
	<path class="st0" d="M62,18.7c11.3,0,21.9,4.4,29.9,12.4c8,8,12.4,18.6,12.4,29.9s-4.4,21.9-12.4,29.9c-8,8-18.6,12.4-29.9,12.4
		s-21.9-4.4-29.9-12.4c-8-8-12.4-18.6-12.4-29.9s4.4-21.9,12.4-29.9C40.1,23.1,50.7,18.7,62,18.7 M62,8C32.7,8,9,31.7,9,61
		s23.7,53,53,53s53-23.7,53-53S91.3,8,62,8z"/>
	<path class="st0" d="M67.4,87.5H56.6V55.6h10.7V87.5z M67.4,45.2H56.6V34.5h10.7V45.2z"/>
</g>
</svg>
