<?xml version="1.0" encoding="utf-8"?>
<!-- Generator: Adobe Illustrator 23.0.6, SVG Export Plug-In . SVG Version: 6.00 Build 0)  -->
<svg version="1.1" id="Layer_1" xmlns="http://www.w3.org/2000/svg" xmlns:xlink="http://www.w3.org/1999/xlink" x="0px" y="0px"
	 viewBox="0 0 100 100" style="enable-background:new 0 0 100 100;" xml:space="preserve">
<style type="text/css">
	.st0{fill:none;stroke:#29722A;stroke-width:2;stroke-linecap:round;stroke-miterlimit:10;}
</style>
<rect x="48.2" y="61.1" class="st0" width="24" height="6"/>
<line class="st0" x1="25.2" y1="27.1" x2="30.2" y2="27.1"/>
<polyline class="st0" points="30.2,27.1 30.2,36.1 30.2,60.1 30.2,67.1 "/>
<circle class="st0" cx="40.2" cy="72.1" r="4"/>
<circle class="st0" cx="70.2" cy="72.1" r="4"/>
<line class="st0" x1="30.2" y1="67.1" x2="79.2" y2="67.1"/>
<circle class="st0" cx="24.2" cy="27.1" r="3"/>
<rect x="42.2" y="43.1" class="st0" width="6" height="24"/>
<rect x="42.2" y="37.1" class="st0" width="24" height="6"/>
<rect x="66.2" y="37.1" class="st0" width="6" height="24"/>
<rect x="54.2" y="43.1" class="st0" width="6" height="18"/>
<line class="st0" x1="66.2" y1="40.1" x2="64.2" y2="40.1"/>
<line class="st0" x1="69.2" y1="61.1" x2="69.2" y2="59.1"/>
<line class="st0" x1="48.2" y1="64.1" x2="50.2" y2="64.1"/>
<line class="st0" x1="45.2" y1="43.1" x2="45.2" y2="45.1"/>
</svg>
