<?xml version="1.0" encoding="utf-8"?>
<!-- Generator: Adobe Illustrator 23.0.4, SVG Export Plug-In . SVG Version: 6.00 Build 0)  -->
<svg version="1.1" id="Capa_1" xmlns="http://www.w3.org/2000/svg" xmlns:xlink="http://www.w3.org/1999/xlink" x="0px" y="0px"
	 viewBox="0 0 512 512" style="enable-background:new 0 0 512 512;" xml:space="preserve">
<style type="text/css">
	.st0{fill:#303C42;}
	.st1{fill:#EAEAEA;}
	.st2{opacity:0.1;enable-background:new    ;}
	.st3{fill:#FFFFFF;}
	.st4{fill:url(#SVGID_1_);}
</style>
<path class="st0" d="M426.7,21.3h-384C19.1,21.3,0,40.5,0,64v416c0,4.3,2.6,8.2,6.6,9.9c1.3,0.6,2.7,0.8,4.1,0.8
	c2.8,0,5.5-1.1,7.5-3.1L121.8,384h304.9c23.5,0,42.7-19.1,42.7-42.7V64C469.3,40.5,450.2,21.3,426.7,21.3z"/>
<path class="st1" d="M448,341.3c0,11.8-9.6,21.3-21.3,21.3H117.3c-2.8,0-5.5,1.1-7.5,3.1l-88.5,88.5V64c0-11.8,9.6-21.3,21.3-21.3
	h384c11.8,0,21.3,9.6,21.3,21.3V341.3z"/>
<path class="st2" d="M426.7,42.7v245.8c0,29.2-23.7,52.8-52.8,52.8H96c-2.8,0-5.5,1.1-7.5,3.1l-37,37
	c-19.3,19.3-30.2,45.5-30.2,72.8l0,0l88.5-88.5c2-2,4.7-3.1,7.5-3.1h309.3c11.8,0,21.3-9.6,21.3-21.3V64
	C448,52.2,438.4,42.7,426.7,42.7z"/>
<g>
	<path class="st0" d="M352,149.3H117.3c-5.9,0-10.7-4.8-10.7-10.7s4.8-10.7,10.7-10.7H352c5.9,0,10.7,4.8,10.7,10.7
		S357.9,149.3,352,149.3z"/>
	<path class="st0" d="M330.6,213.3H117.3c-5.9,0-10.7-4.8-10.7-10.7s4.8-10.7,10.7-10.7h213.3c5.9,0,10.7,4.8,10.7,10.7
		S336.5,213.3,330.6,213.3z"/>
	<path class="st0" d="M245.3,277.3h-128c-5.9,0-10.7-4.8-10.7-10.7s4.8-10.7,10.7-10.7h128c5.9,0,10.7,4.8,10.7,10.7
		C256,272.6,251.2,277.3,245.3,277.3z"/>
	<path class="st0" d="M471.2,64c-10.8,0-21.3,4.4-28.9,12L312.5,205.8c-1.5,1.5-2.5,3.4-2.9,5.4l-10.7,53.4
		c-0.7,3.5,0.4,7.1,2.9,9.6c2,2,4.8,3.1,7.5,3.1c0.7,0,1.4-0.1,2.1-0.2l53.3-10.7c2.1-0.4,4-1.4,5.5-2.9l106.7-106.7c0,0,0,0,0,0
		s0,0,0,0l23.2-23.2c0,0,0,0,0,0c7.6-7.6,12-18.1,12-28.9C512,82.3,493.7,64,471.2,64z"/>
</g>
<polygon class="st3" points="357.4,246.2 322.9,253.1 329.8,218.6 426.7,121.7 454.2,149.3 "/>
<path class="st1" d="M485,118.6l-15.6,15.6l-27.6-27.6L457.4,91c3.6-3.6,8.6-5.7,13.8-5.7c10.8,0,19.5,8.8,19.5,19.5
	C490.7,110,488.6,115,485,118.6z"/>
<linearGradient id="SVGID_1_" gradientUnits="userSpaceOnUse" x1="-356.7261" y1="236.6976" x2="-351.5237" y2="241.907" gradientTransform="matrix(21.3333 0 0 21.3333 7970.6553 -4833.9707)">
	<stop  offset="0" style="stop-color:#000000;stop-opacity:0.1"/>
	<stop  offset="1" style="stop-color:#000000;stop-opacity:0"/>
</linearGradient>
<path class="st4" d="M370.2,263.5c-1.5,1.5-3.4,2.5-5.5,2.9l-53.3,10.7c-0.7,0.1-1.4,0.2-2.1,0.2c-2.8,0-5.5-1.1-7.5-3.1l88.5,88.5
	h36.4c11.8,0,21.3-9.6,21.3-21.3V185.7L370.2,263.5z"/>
</svg>
