<?xml version="1.0" encoding="utf-8"?>
<!-- Generator: Adobe Illustrator 24.0.1, SVG Export Plug-In . SVG Version: 6.00 Build 0)  -->
<svg version="1.1" id="compare" xmlns="http://www.w3.org/2000/svg" xmlns:xlink="http://www.w3.org/1999/xlink" x="0px" y="0px"
	 viewBox="0 0 12 12" style="enable-background:new 0 0 12 12;" xml:space="preserve">
<style type="text/css">
	.st0{fill:#FFFFFF;}
</style>
<path class="st0" d="M6,4.8c-1,0-1.8,0.8-1.8,1.8S5,8.4,6,8.4s1.8-0.8,1.8-1.8S7,4.8,6,4.8z M10.8,3H9.4C9.2,3,9,2.8,8.9,2.7
	L8.5,1.5C8.4,1.4,8.2,1.2,8,1.2H4c-0.2,0-0.4,0.2-0.5,0.3L3.1,2.7C3,2.8,2.8,3,2.6,3H1.2C0.5,3,0,3.5,0,4.2v5.4
	c0,0.7,0.5,1.2,1.2,1.2h9.6c0.7,0,1.2-0.5,1.2-1.2V4.2C12,3.5,11.5,3,10.8,3z M6,9.6c-1.7,0-3-1.3-3-3s1.3-3,3-3s3,1.3,3,3
	S7.7,9.6,6,9.6z M10.4,5C10.2,5,10,4.8,10,4.6c0-0.2,0.2-0.4,0.4-0.4s0.4,0.2,0.4,0.4C10.8,4.8,10.6,5,10.4,5z"/>
</svg>
